<svg xmlns="http://www.w3.org/2000/svg" width="1920" height="4266" fill="none" viewBox="0 0 1920 4266">
  <path fill="#7C8701" fill-opacity=".25" fill-rule="evenodd" d="M379.417 730.801c79.257 49.244 189.124 37.435 256.479 100.497 70.628 66.127 108.822 158.517 117.01 249.192 8.066 89.3-34.814 169.34-71.966 249.56-39.418 85.11-58.336 197.9-151.025 231.9-93.585 34.33-198.474-34.57-296.748-67.64-74.355-25.03-137.92-64.23-206.587-101.79-78.65-43-175.536-63.85-226.003-134.77-53.868-75.7-59.847-170.02-53.381-257.84 6.973-94.715 41.513-181.498 91.648-261.921 61.9-99.295 106.045-255.948 232.232-257.626 134.999-1.795 192.794 178.646 308.341 250.438Z" clip-rule="evenodd"/>
  <path fill="#001F8C" fill-opacity=".25" fill-rule="evenodd" d="M1817.79 144.523c82.83 12.459 138.85 123.153 207.12 186.305 65.2 60.303 193.83 132.379 188.76 179.885-6.78 63.47-199.69 5.357-214.89 64.858-11.34 44.361 129.18 124.967 151.77 182.211 25.19 63.846 26.6 125.691-18.37 155.86-45.01 30.19-135.26 25.334-225.65 7.837-90.42-17.502-199.43-46.986-287.42-107.152-93.74-64.094-96.82-149.649-186.16-216.666-81.13-60.85-203.51-67.323-277.56-131.152-69.14-59.588-101.87-136.6-75.65-173.292 30.59-42.814 198.79 20.508 219.43-27.927 19.03-44.649-131.46-143.998-124.58-194.677 5.85-43.111 75.97-73.956 156.05-37.266 116.18 53.23 163.33 209.02 273.86 234.244 137.35 31.346 82.25-142.778 213.29-123.068Zm51 2591.997c82.83 12.46 138.85 123.16 207.12 186.31 65.2 60.3 193.83 132.38 188.76 179.88-6.78 63.47-199.69 5.36-214.89 64.86-11.34 44.36 129.18 124.97 151.77 182.21 25.19 63.85 26.6 125.69-18.37 155.86-45.01 30.19-135.26 25.34-225.65 7.84-90.42-17.5-199.43-46.99-287.42-107.15-93.74-64.1-96.82-149.65-186.16-216.67-81.13-60.85-203.51-67.32-277.56-131.15-69.14-59.59-101.87-136.6-75.65-173.29 30.59-42.82 198.79 20.5 219.43-27.93 19.03-44.65-131.46-144-124.58-194.68 5.85-43.11 75.97-73.95 156.05-37.26 116.18 53.23 163.33 209.02 273.86 234.24 137.35 31.35 82.25-142.78 213.29-123.07Z" clip-rule="evenodd"/>
  <path fill="#D8EAFF" fill-opacity=".25" fill-rule="evenodd" d="M100.012 1945.18c91.757-16.95 165.042-99.65 257.303-98.37 96.743 1.35 187.186 43.94 254.287 105.47 66.087 60.6 88.273 148.66 114.808 232.98 28.154 89.47 90.104 185.61 44.461 273.15-46.084 88.39-170.022 108.07-264.957 149.77-71.829 31.56-145.223 45.37-221.277 63.84-87.111 21.15-172.784 70.96-257.849 52.5-90.795-19.71-158.716-85.42-213.061-154.71-58.612-74.72-91.501-162.15-108.577-255.36-21.083-115.1-93.911-260.65-1.737-346.85 98.61-92.21 262.829 2.29 396.599-22.42Z" clip-rule="evenodd"/>
  <path fill="#C26363" fill-opacity=".25" fill-rule="evenodd" d="M2200.28 1810.7c8.65 83.31-84.51 165.25-128.58 247.14-42.07 78.21-79.68 220.78-126.95 227.75-63.15 9.32-55.13-192-116.55-191.83-45.78.12-88.68 156.33-138.45 192.52-55.52 40.36-115.04 57.2-155.5 21.2-40.49-36.02-58.36-124.62-64.03-216.51-5.67-91.92-4.39-204.84 31.85-305.09 38.61-106.79 120.67-131.17 163.21-234.44 38.62-93.77 14.28-213.88 57.55-301.54 40.41-81.84 106.78-132.8 148.86-116.59 49.11 18.91 29.88 197.6 81.93 205.47 47.99 7.25 106.54-163.3 157.33-169.32 43.2-5.12 90.61 55.06 75.11 141.77-22.47 125.8-161.52 210.42-158.29 323.75 4.01 140.82 158.81 43.92 172.51 175.72ZM956.021 3791.9c35.974 78.94-109.399 131.45-167.502 196.06-55.483 61.7-87.116 183.84-169.417 178.58-109.959-7.01-145.458-190.61-254.591-205.63-81.365-11.2-119.026 122.2-198.57 143.26-88.718 23.49-190.38 24.3-271.2-18.87-80.875-43.21-134.541-129.3-167.325-215.42-32.794-86.13-58.42-189.91-18.757-273.37 42.251-88.9 182.118-91.1 232.22-175.79 45.493-76.9-27.46-193.63 27.815-263.75 51.602-65.46 157.01-96.04 235.827-70.7 91.97 29.57 101.926 189.54 196.415 209.65 87.101 18.54 149.047-124.21 237.846-117.21 75.541 5.95 174.683 73.14 168.565 149.25-8.878 110.41-235.147 154.07-201.415 259.33 41.919 130.81 293.179 79.73 350.089 204.61Z" clip-rule="evenodd"/>
</svg>
